<?xml version="1.0" encoding="UTF-8"?>
<svg version="1.1" xmlns="http://www.w3.org/2000/svg" width="512" height="512">
<path d="M0 0 C12.64591998 8.14413844 23.67218531 17.86861205 34.08448195 28.68025655 C34.61587342 29.22857813 35.14726489 29.77689972 35.69475913 30.34183711 C72.26439416 68.32075168 81.48141064 110.64860596 80.64490676 162.28255147 C80.05753533 189.08075783 77.39624097 215.62934528 73.83448195 242.18025655 C63.27448195 242.18025655 52.71448195 242.18025655 41.83448195 242.18025655 C41.83448195 199.94025655 41.83448195 157.70025655 41.83448195 114.18025655 C4.87448195 114.18025655 -32.08551805 114.18025655 -70.16551805 114.18025655 C-70.16551805 82.50025655 -70.16551805 50.82025655 -70.16551805 18.18025655 C-95.49077086 18.30005439 -95.49077086 18.30005439 -120.81590867 18.43806905 C-131.14800072 18.49841954 -141.48007628 18.55679067 -151.81224656 18.60213155 C-159.33814812 18.63516685 -166.86397744 18.67506104 -174.38979906 18.7230466 C-178.37128741 18.74819738 -182.35272854 18.77001176 -186.33427453 18.78360051 C-190.08944269 18.79652533 -193.84444797 18.81868948 -197.59952569 18.84763974 C-199.61914117 18.86089153 -201.63881229 18.86461675 -203.65846848 18.86795491 C-215.3692431 18.97452268 -225.72918682 19.69741143 -235.16551805 27.18025655 C-245.29353013 37.52193977 -245.31576278 50.04505141 -245.29923081 63.70387715 C-245.30110046 65.08801247 -245.30340177 66.47214726 -245.30609614 67.85628122 C-245.31220162 71.65016389 -245.31208202 75.44402447 -245.31090176 79.23791093 C-245.31069744 83.33347285 -245.31621955 87.42902774 -245.32095933 91.52458638 C-245.32925967 99.54513315 -245.3320139 107.56567257 -245.33257171 115.58622327 C-245.33304718 122.10722584 -245.33510347 128.62822599 -245.33827233 135.1492278 C-245.34707736 153.64555924 -245.35169197 172.14188488 -245.35094186 190.63821843 C-245.35088192 192.13339253 -245.35088192 192.13339253 -245.35082078 193.65877217 C-245.35075946 195.15577613 -245.35075946 195.15577613 -245.3506969 196.68302259 C-245.35029051 212.85440555 -245.35985861 229.02576522 -245.37395915 245.19714144 C-245.38832986 261.80973012 -245.39522894 278.42230745 -245.39436537 295.03490251 C-245.39403363 304.35839591 -245.39677054 313.68186489 -245.40754342 323.00535268 C-245.41665757 330.9440405 -245.41881616 338.88269283 -245.412034 346.82138363 C-245.40877337 350.86930249 -245.40869556 354.9171533 -245.41738725 358.96506566 C-245.42527345 362.67611827 -245.42379929 366.38704912 -245.41510312 370.09809884 C-245.41285199 372.06501298 -245.42038012 374.03193095 -245.42834276 375.99883026 C-245.38343068 387.60095417 -244.57261459 397.83944896 -237.16551805 407.18025655 C-228.39331555 415.77121519 -217.91946213 417.29089511 -206.02709031 417.38557881 C-205.24578248 417.39547841 -204.46447465 417.40537801 -203.65949082 417.41557759 C-201.10033184 417.44693598 -198.54115436 417.4718475 -195.9819243 417.4966628 C-194.19830453 417.51725454 -192.4146894 417.53825157 -190.63107896 417.55963582 C-185.95405944 417.61462729 -181.27699756 417.66413694 -176.59990525 417.71248311 C-171.82030589 417.76286632 -167.04076746 417.81846428 -162.26122117 417.87361592 C-152.89603709 417.98091679 -143.53080077 418.08194083 -134.16551805 418.18025655 C-134.16551805 428.74025655 -134.16551805 439.30025655 -134.16551805 450.18025655 C-145.82318913 450.24824452 -157.48072684 450.3031947 -169.13855195 450.33569306 C-174.55272673 450.35129676 -179.96675791 450.37243762 -185.38085008 450.4065749 C-190.61339043 450.43935806 -195.84579332 450.45714931 -201.07842851 450.46488827 C-203.06695045 450.47039793 -205.05546554 450.48115623 -207.04392838 450.49744672 C-227.59615483 450.65900494 -244.75717076 447.0866651 -260.08373094 432.52327412 C-268.87121064 423.69064553 -273.6395277 413.92346903 -277.16551805 402.18025655 C-277.34652171 401.58309848 -277.52752537 400.98594041 -277.71401399 400.37068665 C-278.28966576 397.57796542 -278.29503689 394.95471194 -278.29973912 392.10212487 C-278.30419697 390.84815535 -278.30865481 389.59418584 -278.31324774 388.30221725 C-278.31315845 386.90805313 -278.3129686 385.51388902 -278.31268907 384.11972493 C-278.31598863 382.6406086 -278.3197144 381.16149317 -278.32383054 379.68237889 C-278.33384842 375.61194633 -278.33756701 371.54152851 -278.34021986 367.47108537 C-278.34412363 363.08299327 -278.35370204 358.69491285 -278.36243272 354.3068282 C-278.38219687 343.70544965 -278.39226408 333.10407014 -278.40116051 322.50267777 C-278.4055442 317.50892651 -278.41091087 312.51517632 -278.41614938 307.5214259 C-278.43316295 290.91787787 -278.44765615 274.31433049 -278.45489812 257.71077508 C-278.45680799 253.40185548 -278.45872832 249.09293589 -278.46068406 244.78401631 C-278.4611678 243.71306704 -278.46165154 242.64211776 -278.46214994 241.53871547 C-278.47044656 224.19802857 -278.4957767 206.85741074 -278.52826474 189.51675398 C-278.56135604 171.70869776 -278.57934883 153.90067662 -278.58254236 136.0925895 C-278.58470573 126.09602227 -278.59342882 116.0995557 -278.61900353 106.10301846 C-278.64073896 97.58751108 -278.64874704 89.0721288 -278.63903675 80.55659682 C-278.63450005 76.21471437 -278.63634136 71.87308989 -278.6557982 67.53124303 C-278.67348835 63.5490824 -278.67238518 59.56736682 -278.65690091 55.58520108 C-278.65453364 54.15171518 -278.65880224 52.71819799 -278.67072956 51.28475977 C-278.81947161 32.21307844 -272.26344571 16.6243581 -259.0366118 2.98494405 C-219.24187083 -34.46055461 -44.78935801 -27.72168992 0 0 Z M-38.16551805 26.18025655 C-38.16551805 44.66025655 -38.16551805 63.14025655 -38.16551805 82.18025655 C-19.68551805 82.18025655 -1.20551805 82.18025655 17.83448195 82.18025655 C14.15473738 77.88722121 10.63628796 73.85636136 6.67115188 69.88753194 C6.19395705 69.40858479 5.71676223 68.92963765 5.22510695 68.43617696 C3.67419761 66.88092678 2.11973231 65.32929111 0.5649507 63.7779128 C-0.5228163 62.68947119 -1.61043489 61.60088126 -2.69791245 60.51215047 C-4.96308289 58.2455142 -7.23003126 55.98067571 -9.49828172 53.71712178 C-12.41160654 50.80953468 -15.32036375 47.89742568 -18.22783971 44.98399132 C-20.46585766 42.74237239 -22.70623616 40.50312499 -24.9473536 38.26460522 C-26.02184302 37.19078425 -27.09558635 36.11621619 -28.16857934 35.04089993 C-29.6597083 33.54724767 -31.15397627 32.05681059 -32.64916062 30.56721944 C-33.49932252 29.71785313 -34.34948442 28.86848683 -35.22540879 27.99338216 C-36.84471072 26.0664578 -36.84471072 26.0664578 -38.16551805 26.18025655 Z " fill="#000000" transform="translate(350.1655180454254,29.81974345445633)"/>
<path d="M0 0 C24.04457683 18.90044096 38.81442571 44.4323765 43.28955078 74.69042969 C45.2821569 109.96642907 37.7969889 139.97221275 14.02783203 166.72949219 C-3.9461542 186.40720359 -30.31132605 200.15911298 -57.11645508 201.91333008 C-60.83802198 202.03025248 -64.54955164 202.07063459 -68.27294922 202.06542969 C-69.26165009 202.06461395 -69.26165009 202.06461395 -70.27032471 202.06378174 C-81.25146735 202.02224063 -91.26708642 201.07537757 -101.71044922 197.69042969 C-102.39204102 197.47612305 -103.07363281 197.26181641 -103.77587891 197.04101562 C-118.003968 192.45841028 -130.39657324 185.50329393 -141.71044922 175.69042969 C-142.51869141 175.0265625 -143.32693359 174.36269531 -144.15966797 173.67871094 C-160.82940498 159.52121059 -171.58749936 140.47784444 -177.71044922 119.69042969 C-178.05076172 118.58441406 -178.39107422 117.47839844 -178.74169922 116.33886719 C-185.78551602 88.48970262 -180.69576603 57.57861595 -166.57763672 32.84277344 C-150.76554247 6.58926916 -127.15115849 -10.6193679 -98.06591797 -19.48535156 C-63.85293083 -27.88924014 -28.03931841 -21.46772822 0 0 Z M-111.71044922 22.69042969 C-106.66554361 28.78611604 -101.17669628 34.35963449 -95.57421875 39.94018555 C-94.5583533 40.95576844 -93.54270895 41.97157255 -92.52726746 42.98757935 C-89.78820842 45.72692368 -87.0460912 48.46318765 -84.30338907 51.19888377 C-81.43083557 54.06515896 -78.56113966 56.93429232 -75.69113159 59.80311584 C-70.26406936 65.22707792 -64.83446449 70.64848721 -59.40392768 76.06897026 C-53.21812489 82.24357098 -47.03518298 88.42103308 -40.85247254 94.59872997 C-28.14163187 107.29913605 -15.42722628 119.99596779 -2.71044922 132.69042969 C6.54260392 124.01812567 10.04384774 108.14446393 10.60205078 96.06933594 C11.20912186 74.82521138 6.41027475 55.13339473 -7.71044922 38.69042969 C-8.20673828 38.05234375 -8.70302734 37.41425781 -9.21435547 36.75683594 C-20.72757535 22.5248316 -38.78062866 13.42391654 -56.71044922 10.69042969 C-57.64630859 10.53832031 -58.58216797 10.38621094 -59.54638672 10.22949219 C-78.33853968 7.91265141 -95.63767391 13.14516925 -111.71044922 22.69042969 Z M-135.71044922 46.69042969 C-146.54865767 66.70954772 -151.60028425 86.97612492 -146.21044922 109.69042969 C-142.6860036 120.80118202 -137.33141705 131.81614619 -129.71044922 140.69042969 C-129.21416016 141.32851563 -128.71787109 141.96660156 -128.20654297 142.62402344 C-116.6950968 156.85383521 -98.63918338 165.96063533 -80.71044922 168.69042969 C-79.76298828 168.84253906 -78.81552734 168.99464844 -77.83935547 169.15136719 C-59.16961225 171.43125442 -41.68638981 165.9988337 -25.71044922 156.69042969 C-30.75377368 150.59920671 -36.23603473 145.02282615 -41.83081055 139.44067383 C-42.84504497 138.42508208 -43.85906703 137.40927823 -44.87289429 136.39328003 C-47.60779635 133.65384655 -50.3458186 130.91755225 -53.0845778 128.1819756 C-55.95369523 125.31539988 -58.82036088 122.44637393 -61.68742371 119.57774353 C-66.49465385 114.76869874 -71.30397877 109.96175643 -76.11450195 105.15600586 C-81.68213742 99.59383025 -87.24613624 94.02803625 -92.80829602 88.46038538 C-97.58702327 83.67712904 -102.36768524 78.89581292 -107.14998835 74.11613172 C-110.00534083 71.26234076 -112.86000727 68.40787238 -115.71293068 65.55165291 C-118.38895533 62.87275189 -121.06739077 60.19628541 -123.74775314 57.5217247 C-124.73348498 56.53732093 -125.71835609 55.55205445 -126.70232582 54.56588936 C-128.03934597 53.22616003 -129.37971811 51.88977833 -130.72029114 50.55360413 C-131.47113385 49.80313844 -132.22197657 49.05267275 -132.99557209 48.27946568 C-134.44304825 46.57714947 -134.44304825 46.57714947 -135.71044922 46.69042969 Z " fill="#000000" transform="translate(396.71044921875,294.3095703125)"/>
</svg>
